name rise38.3101peak57.3503fall81.6963.mot
datacolumns 19
datarows 15
range 10.03997000000000 10.06330400000000
endheader
time	ground_force1_vx	ground_force1_vy	ground_force1_vz	ground_force1_px	ground_force1_py	ground_force1_pz	ground_force2_vx	ground_force2_vy	ground_force2_vz	ground_force2_px	ground_force2_py	ground_force2_pz	ground_torque1_x	ground_torque1_y	ground_torque1_z	ground_torque2_x	ground_torque2_y	ground_torque2_z	
10.03997000000000	67.52016999999999	775.05144399999995	51.17073800000000	0.35140300000000	0.00000000000000	0.08721100000000	0.63345700000000	11.01477500000000	0.71868300000000	0.00000000000000	0.00000000000000	0.00000000000000	0.00000000000000	22.42255300000000	0.00000000000000	0.00000000000000	0.19070100000000	0.00000000000000	
10.04163000000000	66.83115100000001	778.21031000000005	51.46900500000000	0.35054700000000	0.00000000000000	0.08721600000000	0.61301200000000	6.81063300000000	0.46872600000000	0.00000000000000	0.00000000000000	0.00000000000000	0.00000000000000	22.61215200000000	0.00000000000000	0.00000000000000	0.15629000000000	0.00000000000000	
10.04330900000000	66.13781299999999	781.20510000000002	51.77290100000000	0.34970800000000	0.00000000000000	0.08722300000000	0.54645800000000	3.36781700000000	0.25789300000000	0.00000000000000	0.00000000000000	0.00000000000000	0.00000000000000	22.80667200000000	0.00000000000000	0.00000000000000	0.11946800000000	0.00000000000000	
10.04496800000000	65.44076900000000	784.03323499999999	52.08179500000000	0.34888200000000	0.00000000000000	0.08723100000000	0.00000000000000	0.00000000000000	0.00000000000000	0.00000000000000	0.00000000000000	0.00000000000000	0.00000000000000	23.00560300000000	0.00000000000000	0.00000000000000	0.00000000000000	0.00000000000000	
10.04663600000000	64.74057300000000	786.69234900000004	52.39496600000000	0.34806900000000	0.00000000000000	0.08723900000000	0.00000000000000	0.00000000000000	0.00000000000000	0.00000000000000	0.00000000000000	0.00000000000000	0.00000000000000	23.20837900000000	0.00000000000000	0.00000000000000	0.00000000000000	0.00000000000000	
10.04831300000000	64.03771200000000	789.18031299999996	52.71161200000000	0.34726700000000	0.00000000000000	0.08724900000000	0.00000000000000	0.00000000000000	0.00000000000000	0.00000000000000	0.00000000000000	0.00000000000000	0.00000000000000	23.41438400000000	0.00000000000000	0.00000000000000	0.00000000000000	0.00000000000000	
10.04996700000000	63.33261700000000	791.49523599999998	53.03085000000000	0.34647600000000	0.00000000000000	0.08725900000000	0.00000000000000	0.00000000000000	0.00000000000000	0.00000000000000	0.00000000000000	0.00000000000000	0.00000000000000	23.62295500000000	0.00000000000000	0.00000000000000	0.00000000000000	0.00000000000000	
10.05163000000000	62.62566500000000	793.63548700000001	53.35173200000000	0.34569300000000	0.00000000000000	0.08727000000000	0.00000000000000	0.00000000000000	0.00000000000000	0.00000000000000	0.00000000000000	0.00000000000000	0.00000000000000	23.83338800000000	0.00000000000000	0.00000000000000	0.00000000000000	0.00000000000000	
10.05330900000000	61.91717400000000	795.59969999999998	53.67324400000000	0.34491800000000	0.00000000000000	0.08728100000000	0.00000000000000	0.00000000000000	0.00000000000000	0.00000000000000	0.00000000000000	0.00000000000000	0.00000000000000	24.04494100000000	0.00000000000000	0.00000000000000	0.00000000000000	0.00000000000000	
10.05496900000000	61.20741500000000	797.38678700000003	53.99431900000000	0.34414900000000	0.00000000000000	0.08729400000000	0.00000000000000	0.00000000000000	0.00000000000000	0.00000000000000	0.00000000000000	0.00000000000000	0.00000000000000	24.25684200000000	0.00000000000000	0.00000000000000	0.00000000000000	0.00000000000000	
10.05663000000000	60.49661200000000	798.99594400000001	54.31384300000000	0.34338400000000	0.00000000000000	0.08730700000000	0.00000000000000	0.00000000000000	0.00000000000000	0.00000000000000	0.00000000000000	0.00000000000000	0.00000000000000	24.46829200000000	0.00000000000000	0.00000000000000	0.00000000000000	0.00000000000000	
10.05830200000000	59.78494200000000	800.42666099999997	54.63066500000000	0.34262200000000	0.00000000000000	0.08732000000000	0.00000000000000	0.00000000000000	0.00000000000000	0.00000000000000	0.00000000000000	0.00000000000000	0.00000000000000	24.67846900000000	0.00000000000000	0.00000000000000	0.00000000000000	0.00000000000000	
10.05996500000000	59.07254200000000	801.67872699999998	54.94360200000000	0.34186000000000	0.00000000000000	0.08733500000000	0.00000000000000	0.00000000000000	0.00000000000000	0.00000000000000	0.00000000000000	0.00000000000000	0.00000000000000	24.88653900000000	0.00000000000000	0.00000000000000	0.00000000000000	0.00000000000000	
10.06163300000000	58.35951400000000	802.75223600000004	55.25144800000000	0.34109800000000	0.00000000000000	0.08734900000000	0.00000000000000	0.00000000000000	0.00000000000000	0.00000000000000	0.00000000000000	0.00000000000000	0.00000000000000	25.09165300000000	0.00000000000000	0.00000000000000	0.00000000000000	0.00000000000000	
10.06330400000000	57.64592400000000	803.64758900000004	55.55298600000000	0.34033400000000	0.00000000000000	0.08736400000000	0.00000000000000	0.00000000000000	0.00000000000000	0.00000000000000	0.00000000000000	0.00000000000000	0.00000000000000	25.29295900000000	0.00000000000000	0.00000000000000	0.00000000000000	0.00000000000000	
